<svg id="Capa_1" data-name="Capa 1" xmlns="http://www.w3.org/2000/svg" viewBox="0 0 1075.84 83.28"><defs><style>.cls-1{fill:#f4b3e5;}.cls-2{fill:#cc23ac;}.cls-3{fill:#c618c6;stroke:#e8e315;stroke-linecap:round;stroke-miterlimit:10;}</style></defs><title>graphic</title><path class="cls-1" d="M72.28,21.92C84.65,22,97,23.6,109.33,23.66c11.5.05,24.57-.46,34.53-6.92,1.62-1,.11-3.64-1.51-2.59-10.28,6.66-23.95,6.7-35.76,6.48C95.14,20.41,83.73,19,72.28,18.92a1.5,1.5,0,0,0,0,3Z" transform="translate(-64.3 -12.74)"/><path class="cls-1" d="M100.6,17.93c.12,10.81,2.33,21.59,1.54,32.41-.65,8.79-3.33,15.11-10.85,19.63-5,3-11.67,5.92-17.68,5.25-6.28-.7-8.61-9-4.1-13.41,3.9-3.82,11.47-2,16.07-.92a130.61,130.61,0,0,1,18.92,6.55c11,4.54,23.59,11,35.82,7.06,8-2.56,13.5-10.51,14.91-18.54,1.48-8.36-2.54-15-10.25-18.13l-.4,3c9-.32,17.69-3.72,26.73-3.85L169.86,35c-3,8.06-14.43,31.79,1.71,33.9,11.61,1.51,23.84-12,29.05-20.89,2.15-3.63,4.66-8.86,2.64-13.08-1.65-3.47-5-3.77-7.66-1.22-6.15,6-10.35,23.75-3.48,30.43,12.3,12,25.47-14.76,29.47-22.65l-2.79-.75c.79,9.2-2.16,19.42-7.24,27.08L214.3,69c1.7-9.31,8.75-21.55,18.78-23.46l-1.84-1c2.26,8.09.76,16.22-1.14,24.22a1.52,1.52,0,0,0,1.05,1.84c15.48,4.56,28.59-16.29,30.22-29.21a1.51,1.51,0,0,0-1.1-1.44C249.21,36.41,246.59,54.42,247,61.61c.26,4.94,2.1,10.37,7,12.58,6.43,2.93,14.2-3.14,20-5.11,1.82-.62,1-3.52-.8-2.89-4.7,1.59-9.29,4.94-14.21,5.64-6.13.87-8.69-5.2-9-10.22s1.14-21.45,9.49-18.82l-1.1-1.45C257,52.31,245.22,71.56,232,67.66L233,69.5c2-8.52,3.54-17.2,1.13-25.8a1.54,1.54,0,0,0-1.85-1.05c-11,2.09-19,15.29-20.87,25.55a1.51,1.51,0,0,0,2.74,1.16c5.35-8.06,8.49-18.9,7.65-28.59-.12-1.36-2.07-2.2-2.8-.76a134,134,0,0,1-6.61,12c-2.8,4.36-7,10.82-12.6,11.7-11.91,1.87-7.38-17.59-4.88-23.21.81-1.84,4-8.33,5.81-3.84,1.34,3.37-1.47,8-3.17,10.7-4.74,7.59-13.22,16.59-22.39,18.43-16.67,3.35-4.82-23.33-2.41-29.94a1.5,1.5,0,0,0-1.44-1.89c-9.06.13-17.68,3.53-26.73,3.85a1.5,1.5,0,0,0-.4,2.94c12.58,5.17,9.22,21.3.11,28.34-7,5.37-17.65,3.8-25.44,1.09-12.25-4.27-23.67-10.91-36.64-13C77.64,56.39,72,56,68.15,59s-4.78,9.27-3,13.65c4.4,10.69,20.89,3.91,27.64-.13s10.26-9.16,11.7-17.11c2.24-12.41-.77-25.06-.91-37.52a1.5,1.5,0,0,0-3,0Z" transform="translate(-64.3 -12.74)"/><path class="cls-1" d="M358.11,68.12c-10.2-13.43-23.64,17.12-12,26,7,5.35,17.56-1.93,23.35-5.94,9.74-6.77,17.82-16,24.28-25.89,7.21-11,13-23.91,13-37.31h-3c.08,11.88,2.25,21.45,7.82,32a1.49,1.49,0,0,0,2.05.54c9.41-6.84,17.1-15.88,27.2-21.78l-2.06-2.05c-5.71,7.92-12.36,15.11-17.62,23.37-4,6.29-9.1,15.2-6,22.86,3.44,8.34,15,10.16,23,10.13A49.52,49.52,0,0,0,468.05,79.7c9.52-7.45,15.09-18.5,13.85-30.68A1.52,1.52,0,0,0,480,47.57c-5.55,1.46-10.85,7.22-14.66,11.17s-9.89,10.08-9.17,16,7.39,5.92,11.32,3.23c5.21-3.56,10.35-10.82,11.56-17.08h-2.89c1.68,6.84-.22,14,2.3,20.72a1.55,1.55,0,0,0,1.45,1.1c14.21-.78,20.48-21.28,18.09-33L497,51.53c7.78-2,15.15-5.17,22.88-7.29l-1.46-2.51C510.28,48,481.9,71.94,499.9,81.65c17.7,9.55,33.77-16.28,41.93-27.95,5.81-8.3,11.72-20.13,20.81-25.32l-2.21-1.69C554.74,42.51,543.6,56.42,544.25,74a1.57,1.57,0,0,0,1.1,1.45c10.89,4.5,18-9,25.34-14.4L568.64,59c-3.85,5.22-9.82,20.95,2.09,20.59,14.24-.44,21.52-18.19,30.36-26.72L599,50.71c-5.82,7.23-12.41,13.7-19,20.22-1.39,1.38.66,3.35,2.12,2.12,8.9-7.51,16.66-16.34,26.64-22.48l-2-.54c3.85,5.15-1.29,10.23-4.55,14.17-2.71,3.28-5.49,6.54-6.72,10.69a1.51,1.51,0,0,0,1.05,1.84C609,78.82,619.41,63.46,625,54.31a1.54,1.54,0,0,0-.23-1.82c-8.33-9.32-19.81,9.07-21,16-.83,4.65,1.27,8.42,6.36,8.06,10.57-.75,17.48-9.86,22.3-18.2,1.6-2.77,3.53-5.32,5.15-8.06.65-1.11,1-2.66,2-3.3,2-1.28,6.81-1.11,9.07-1.08,4.3.06,8.56.87,12.85,1l-.75-2.8c-8.41,3.61-16.94,6.93-25,11.32-4.89,2.67-14,7.07-12.21,14.08,1.71,6.78,11.1,5.94,16.33,5.24,7.87-1,15.39-3.5,23-5.69,1.85-.54,1.07-3.43-.79-2.89-5.33,1.53-35.69,12.2-35.72,1.6,0-5.94,12.28-10.56,16.58-12.64,6.33-3.06,12.86-5.65,19.32-8.43,1.46-.63.59-2.75-.76-2.79-6.66-.24-12.83-1.39-19.49-.38-2.81.43-4.36.44-5.84,2.82C629.91,56.43,625,69.27,612.56,73c-8.55,2.54-6-5.69-3.31-10.43,2-3.54,8.79-13.1,13.42-7.92l-.24-1.82c-4.69,7.67-14.46,22.83-25.16,21.05l1.05,1.84c2.5-8.42,18.27-17.38,11-27.17a1.53,1.53,0,0,0-2-.53C597,54.26,589.09,63.25,580,70.93l2.12,2.12c6.57-6.52,13.16-13,19-20.22,1.18-1.47-.7-3.49-2.12-2.12-7.48,7.21-12.14,17.76-21.09,23.38-3.5,2.19-10.83,4.73-11.36-1.49-.37-4.27,2.29-8.84,4.71-12.12.88-1.19-.87-2.92-2.05-2-6.45,4.71-13.71,17.95-23,14.1l1.1,1.44c-.64-17.18,10.5-31,16.08-46.48.46-1.28-1.14-2.31-2.21-1.7-5.91,3.38-10.09,9.68-14,15.08C541.34,49,536,57.39,529.66,65.12c-5,6.12-11.56,13.87-19.81,15.3-4,.69-9.71-.56-11.85-4.39s.36-8.31,2.34-11.49c5.05-8.09,12.66-14.89,20.16-20.68,1.24-1-.12-2.88-1.46-2.51-7.73,2.12-15.1,5.34-22.88,7.29a1.52,1.52,0,0,0-1,1.84c2,9.69-3.21,28.56-15.2,29.21l1.45,1.1c-2.5-6.62-.63-13.9-2.31-20.72a1.51,1.51,0,0,0-2.89,0c-1,5-4.68,10.18-8.23,13.61-1.8,1.74-5.79,5-8.15,2.17-1.37-1.66-.32-4,.51-5.64,2.34-4.72,6.35-8.74,10.17-12.29,2.82-2.62,6.47-6.44,10.33-7.45L478.9,49c2.71,26.69-29.76,44.43-53.08,36s8.3-39.83,15.55-49.9c.91-1.26-.83-2.76-2.05-2.05C429.21,39,421.54,48.05,412.13,54.9l2.05.54c-5.34-10.06-7.33-19.08-7.41-30.45a1.5,1.5,0,0,0-3,0c-.09,22-15.55,44.31-32.06,57.77-5.16,4.21-19.94,15.77-25.47,7-2.6-4.12-2-9.3-.59-13.69,1.3-4,5.36-12.41,9.87-6.47,1.15,1.52,3.76,0,2.59-1.51Z" transform="translate(-64.3 -12.74)"/><path class="cls-1" d="M539.47,40.55a526.37,526.37,0,0,0,53.42-2.48c1.91-.2,1.93-3.2,0-3a526.37,526.37,0,0,1-53.42,2.48,1.5,1.5,0,0,0,0,3Z" transform="translate(-64.3 -12.74)"/><path class="cls-2" d="M817.79,56.19c-13.94.27-27.22,5.42-41,6.63-6.52.57-13.31.29-19.17-2.93a54,54,0,0,1-12-9.46c-6.34-6.4-17.67-20.22-8.46-28.72,8.33-7.69,24-6.35,34.37-5.57A133.77,133.77,0,0,1,810.69,25c16.25,6.34,32.51,11.52,49.74,14.46,35.91,6.12,72.88,5.05,109.16,4.88,16.3-.07,32.91.88,49.15-.74,13.81-1.39,27.53-5.35,37.16-15.88a1.54,1.54,0,0,0,0-2.12c-6.66-6.88-18.63-6.63-27.45-6.42-11.94.27-24.29.84-35.92,3.69-15.39,3.78-29.76,10.91-44.31,17-15.2,6.4-30.55,12.49-46.15,17.85-23.56,8.1-47.84,13.94-71.84,20.51-22,6-44.48,11.66-67.34,13.24s-49.61-.94-64.33-20.88c-1.13-1.53-3.74,0-2.59,1.52,11.54,15.63,30.17,21.51,48.91,22.56,22.69,1.27,45.58-3.29,67.5-8.67,21-5.15,41.94-11,62.76-16.74,31.63-8.81,61.93-21.33,92.05-34.27a168.46,168.46,0,0,1,26.14-9.26c7.72-1.89,15.48-2.44,23.37-3a173.28,173.28,0,0,1,18.79-.57c6.13.25,13.76.82,18.29,5.5V25.58C1043.35,37,1028,40.16,1013.13,41c-16.1.93-32.37.26-48.49.34-39.19.19-79.45,1.29-117.85-7.72a205.1,205.1,0,0,1-26.24-8c-8.24-3.15-16.35-6.71-24.9-8.93a134.74,134.74,0,0,0-36.28-3.93c-9,.21-21.88,1.24-26.94,10-4.94,8.55,1.64,18.86,7.05,25.4,7.37,8.9,16.95,16.87,28.86,17.78,16.8,1.28,32.77-6.42,49.45-6.75,1.93,0,1.93-3,0-3Z" transform="translate(-64.3 -12.74)"/><rect class="cls-3" x="1013.21" y="9.72" width="62.13" height="62.13"/></svg>